<svg width="32" height="32" viewBox="0 0 32 32" fill="none" xmlns="http://www.w3.org/2000/svg">
<rect width="32" height="32" rx="5" fill="#121214"/>
<path d="M20 22.5V8.5H9.5V21.625C9.5 21.8571 9.59219 22.0796 9.75628 22.2437C9.92038 22.4078 10.1429 22.5 10.375 22.5H20ZM22.625 24.25H10.375C9.67881 24.25 9.01113 23.9734 8.51884 23.4812C8.02656 22.9889 7.75 22.3212 7.75 21.625V7.625C7.75 7.39294 7.84219 7.17038 8.00628 7.00628C8.17038 6.84219 8.39294 6.75 8.625 6.75H20.875C21.1071 6.75 21.3296 6.84219 21.4937 7.00628C21.6578 7.17038 21.75 7.39294 21.75 7.625V13.75H25.25V21.625C25.25 22.3212 24.9734 22.9889 24.4812 23.4812C23.9889 23.9734 23.3212 24.25 22.625 24.25ZM21.75 15.5V21.625C21.75 21.8571 21.8422 22.0796 22.0063 22.2437C22.1704 22.4078 22.3929 22.5 22.625 22.5C22.8571 22.5 23.0796 22.4078 23.2437 22.2437C23.4078 22.0796 23.5 21.8571 23.5 21.625V15.5H21.75ZM11.25 10.25H16.5V15.5H11.25V10.25ZM13 12V13.75H14.75V12H13ZM11.25 16.375H18.25V18.125H11.25V16.375ZM11.25 19H18.25V20.75H11.25V19Z" fill="#EBA417"/>
</svg>
